<?xml version="1.0" standalone="no"?>
<!DOCTYPE svg PUBLIC "-//W3C//DTD SVG 20010904//EN"
 "http://www.w3.org/TR/2001/REC-SVG-20010904/DTD/svg10.dtd">
<svg version="1.0" xmlns="http://www.w3.org/2000/svg"
 width="512.000000pt" height="512.000000pt" viewBox="0 0 512.000000 512.000000"
 preserveAspectRatio="xMidYMid meet">
<metadata>
Created by potrace 1.14, written by Peter Selinger 2001-2017
</metadata>
<g transform="translate(0.000000,512.000000) scale(0.100000,-0.100000)"
fill="#000000" stroke="none">
<path d="M415 5110 c-22 -5 -60 -16 -85 -25 -150 -53 -285 -212 -319 -373 -8
-38 -11 -659 -11 -2155 0 -2299 -4 -2151 57 -2277 35 -72 151 -188 223 -223
126 -61 -22 -57 2277 -57 1496 0 2117 3 2155 11 189 39 358 208 397 397 16 75
16 4229 0 4304 -35 167 -166 316 -335 380 l-59 23 -2130 1 c-1172 1 -2148 -2
-2170 -6z m430 -2085 c88 -23 132 -56 163 -123 l27 -57 0 -275 c0 -317 -5
-343 -78 -405 -73 -63 -115 -70 -435 -70 -241 0 -284 2 -292 15 -15 24 -13
903 2 918 19 19 536 17 613 -3z m1085 -11 c13 -34 13 -642 -1 -724 -13 -81
-38 -123 -95 -156 -73 -43 -136 -55 -284 -56 -157 0 -246 21 -306 74 -61 54
-68 76 -72 246 -2 83 -1 163 2 177 l7 26 132 -3 132 -3 5 -113 c5 -104 7 -115
29 -133 35 -29 105 -26 136 6 l25 24 0 324 c0 178 3 327 7 330 3 4 66 7 140 7
l133 0 10 -26z m1190 7 c14 -27 14 -684 -1 -750 -16 -75 -45 -111 -119 -148
-113 -57 -340 -65 -483 -17 -73 24 -132 85 -146 152 -17 79 -15 317 3 331 9 8
55 11 137 9 l124 -3 5 -113 c5 -104 7 -115 29 -133 33 -27 114 -26 141 1 19
19 20 33 20 343 0 238 3 326 12 335 8 8 54 12 140 12 116 0 128 -2 138 -19z
m809 -11 c72 -41 85 -67 89 -176 5 -115 -1 -139 -38 -174 l-30 -28 35 -6 c43
-8 94 -50 111 -93 9 -22 14 -75 14 -161 0 -113 -3 -133 -22 -172 -29 -57 -72
-85 -151 -99 -82 -14 -581 -15 -608 -1 -18 10 -19 26 -19 469 0 252 3 461 7
465 4 4 134 6 288 4 277 -3 280 -3 324 -28z m1009 -84 c2 -71 -1 -113 -9 -122
-9 -11 -50 -14 -190 -14 l-179 0 0 -70 0 -70 130 0 c154 0 150 4 150 -129 0
-122 1 -121 -156 -121 l-124 0 0 -145 0 -145 -27 -11 c-43 -16 -251 -8 -263
11 -14 21 -13 886 0 911 10 19 23 19 338 17 l327 -3 3 -109z"/>
<path d="M520 2565 l0 -225 88 0 c137 0 132 -9 132 225 0 163 -3 196 -16 209
-12 12 -37 16 -110 16 l-94 0 0 -225z"/>
<path d="M3602 2748 l3 -73 60 -3 c79 -4 100 11 100 71 0 65 -15 77 -97 77
l-69 0 3 -72z"/>
<path d="M3602 2393 l3 -78 81 -3 c44 -1 93 2 108 8 26 10 27 12 24 77 l-3 68
-108 3 -108 3 3 -78z"/>
</g>
</svg>
